<svg xmlns="http://www.w3.org/2000/svg" viewBox="0 0 319.1 71.18"><title>logo</title><g id="Layer_2" data-name="Layer 2"><g id="Layer_1-2" data-name="Layer 1"><path d="M15.3.9h6.45l15.4,35.4h-8.8L25.3,28.8H11.55l-3,7.5H0Zm3,10.3L14,22.2h8.65Z"/><path d="M43.2.9H56.4A34.39,34.39,0,0,1,61,1.22a13,13,0,0,1,4.18,1.3,8,8,0,0,1,3,2.73A8.34,8.34,0,0,1,69.35,9.9a7.43,7.43,0,0,1-1.68,5,9.24,9.24,0,0,1-4.42,2.82v.1a10.21,10.21,0,0,1,3.17,1,8.74,8.74,0,0,1,2.45,1.85,8,8,0,0,1,1.58,2.63,9.16,9.16,0,0,1,.55,3.2,8.46,8.46,0,0,1-1.2,4.67,9.35,9.35,0,0,1-3.1,3,13.43,13.43,0,0,1-4.28,1.65,23,23,0,0,1-4.72.5H43.2ZM51,15.05h5.65a8.07,8.07,0,0,0,1.77-.2A4.83,4.83,0,0,0,60,14.2,3.31,3.31,0,0,0,61.12,13a3.53,3.53,0,0,0,.43-1.8,3.18,3.18,0,0,0-1.7-2.95,5.88,5.88,0,0,0-1.7-.58A10.79,10.79,0,0,0,56.3,7.5H51ZM51,29.7h7a8.74,8.74,0,0,0,1.82-.2,4.83,4.83,0,0,0,1.68-.7,3.9,3.9,0,0,0,1.22-1.3,3.71,3.71,0,0,0,.48-1.95,3.14,3.14,0,0,0-.63-2A4,4,0,0,0,61,22.35a7.93,7.93,0,0,0-2-.55,15.23,15.23,0,0,0-2.05-.15H51Z"/><path d="M76.2,18.6a20,20,0,0,1,1.42-7.7A17,17,0,0,1,81.6,5,17.68,17.68,0,0,1,87.65,1.3a23.16,23.16,0,0,1,15.3,0A17.68,17.68,0,0,1,109,5a16.93,16.93,0,0,1,4,5.88,20,20,0,0,1,1.43,7.7A20,20,0,0,1,113,26.3a16.79,16.79,0,0,1-4,5.87,17.55,17.55,0,0,1-6,3.73,23.16,23.16,0,0,1-15.3,0,17.55,17.55,0,0,1-6.05-3.73,16.82,16.82,0,0,1-4-5.87A20,20,0,0,1,76.2,18.6Zm8.1,0a13.08,13.08,0,0,0,.77,4.57,10.37,10.37,0,0,0,2.23,3.6,10.18,10.18,0,0,0,3.47,2.38,12.47,12.47,0,0,0,9,0,10.17,10.17,0,0,0,5.7-6,12.85,12.85,0,0,0,.78-4.57,13,13,0,0,0-.78-4.55,10.06,10.06,0,0,0-5.7-6,12.47,12.47,0,0,0-9,0,10.3,10.3,0,0,0-3.47,2.37,10.5,10.5,0,0,0-2.23,3.63A13.21,13.21,0,0,0,84.3,18.6Z"/><path d="M152.05,22.65a17.17,17.17,0,0,1-1,5.8,12.56,12.56,0,0,1-7.5,7.65,19.61,19.61,0,0,1-12.95,0A12.89,12.89,0,0,1,126,33.05a12.68,12.68,0,0,1-2.82-4.6,17.17,17.17,0,0,1-1-5.8V.9H130V22.35a8.61,8.61,0,0,0,.52,3A7.33,7.33,0,0,0,132,27.82a6.54,6.54,0,0,0,2.27,1.6,7.09,7.09,0,0,0,2.88.58,6.88,6.88,0,0,0,2.85-.58,6.56,6.56,0,0,0,2.25-1.6,7.31,7.31,0,0,0,1.47-2.42,8.61,8.61,0,0,0,.53-3V.9h7.8Z"/><path d="M168.6,7.8H158.5V.9h28V7.8H176.4V36.3h-7.8Z"/><path d="M219,21.2,205.65.9h9.7l7.5,13.25L230.8.9h9.25l-13.3,20.3V36.3H219Z"/><path d="M243.25,18.6a20,20,0,0,1,1.42-7.7,17,17,0,0,1,4-5.88,17.59,17.59,0,0,1,6-3.72,23.16,23.16,0,0,1,15.3,0A17.68,17.68,0,0,1,276.05,5a16.93,16.93,0,0,1,4,5.88,20,20,0,0,1,1.43,7.7A20,20,0,0,1,280,26.3a16.79,16.79,0,0,1-4,5.87A17.55,17.55,0,0,1,270,35.9a23.16,23.16,0,0,1-15.3,0,17.46,17.46,0,0,1-6-3.73,16.82,16.82,0,0,1-4-5.87A20,20,0,0,1,243.25,18.6Zm8.1,0a12.85,12.85,0,0,0,.77,4.57,10.37,10.37,0,0,0,2.23,3.6,10.08,10.08,0,0,0,3.47,2.38,12.47,12.47,0,0,0,9.05,0,10.22,10.22,0,0,0,3.48-2.38,10.34,10.34,0,0,0,2.22-3.6,12.85,12.85,0,0,0,.78-4.57,13,13,0,0,0-.78-4.55,10.47,10.47,0,0,0-2.22-3.63,10.34,10.34,0,0,0-3.48-2.37,12.47,12.47,0,0,0-9.05,0,10.2,10.2,0,0,0-3.47,2.37,10.5,10.5,0,0,0-2.23,3.63A13,13,0,0,0,251.35,18.6Z"/><path d="M319.1,22.65a17.17,17.17,0,0,1-1,5.8,12.56,12.56,0,0,1-7.5,7.65,19.61,19.61,0,0,1-12.95,0A12.89,12.89,0,0,1,293,33.05a12.68,12.68,0,0,1-2.82-4.6,16.93,16.93,0,0,1-.95-5.8V.9h7.8V22.35a8.61,8.61,0,0,0,.52,3,7.17,7.17,0,0,0,1.48,2.42,6.54,6.54,0,0,0,2.27,1.6,7,7,0,0,0,2.88.58,6.88,6.88,0,0,0,2.85-.58,6.76,6.76,0,0,0,2.25-1.6,7.31,7.31,0,0,0,1.47-2.42,8.61,8.61,0,0,0,.53-3V.9h7.8Z"/><path d="M2.58,49.4H8.69a11.39,11.39,0,0,1,2.33.26,6.75,6.75,0,0,1,2.22.88,5,5,0,0,1,1.65,1.73A5.32,5.32,0,0,1,15.54,55,5.51,5.51,0,0,1,15,57.5a4.89,4.89,0,0,1-1.41,1.73,6.07,6.07,0,0,1-2,1,8.76,8.76,0,0,1-2.41.33H4.56V70.64h-2Zm2,9.36h4.5a7.08,7.08,0,0,0,1.65-.19,4.26,4.26,0,0,0,1.44-.63,3.49,3.49,0,0,0,1-1.16A3.8,3.8,0,0,0,13.56,55a3.5,3.5,0,0,0-.41-1.74,3.62,3.62,0,0,0-1.05-1.18,4.36,4.36,0,0,0-1.48-.68,7,7,0,0,0-1.68-.21H4.56Z"/><path d="M22.79,49.4h5.59l1.13,0a11.68,11.68,0,0,1,1.56.18,9.56,9.56,0,0,1,1.71.48,4.84,4.84,0,0,1,1.56,1,5,5,0,0,1,1.14,1.59A5.49,5.49,0,0,1,35.93,55a5.35,5.35,0,0,1-.52,2.52,4.91,4.91,0,0,1-1.32,1.61,5.56,5.56,0,0,1-1.76.91,11.36,11.36,0,0,1-1.83.42l6.18,10.2H34.43l-6-10.08H24.77V70.64h-2Zm2,9.36H29a7,7,0,0,0,2.54-.39,4.18,4.18,0,0,0,1.51-1,3.05,3.05,0,0,0,.74-1.23,3.88,3.88,0,0,0,0-2.4A3.05,3.05,0,0,0,33,52.55a4.18,4.18,0,0,0-1.51-1A7,7,0,0,0,29,51.2h-4.2Z"/><path d="M42.2,60A12,12,0,0,1,43,55.55,10.62,10.62,0,0,1,45.26,52a10.24,10.24,0,0,1,3.47-2.33,12.23,12.23,0,0,1,8.91,0A10.2,10.2,0,0,1,61.1,52a10.62,10.62,0,0,1,2.25,3.52A12,12,0,0,1,64.16,60a12.15,12.15,0,0,1-.81,4.49,10.61,10.61,0,0,1-2.25,3.54,10,10,0,0,1-3.46,2.31,12.51,12.51,0,0,1-8.91,0,10.05,10.05,0,0,1-3.47-2.31A10.61,10.61,0,0,1,43,64.51,12.15,12.15,0,0,1,42.2,60Zm2,0a10.59,10.59,0,0,0,.63,3.69,8.76,8.76,0,0,0,1.8,3,8.34,8.34,0,0,0,2.84,2,10,10,0,0,0,7.47,0,8.3,8.3,0,0,0,2.83-2,8.76,8.76,0,0,0,1.8-3,11.12,11.12,0,0,0,0-7.38,8.76,8.76,0,0,0-1.8-3,8.3,8.3,0,0,0-2.83-2,10,10,0,0,0-7.47,0,8.34,8.34,0,0,0-2.84,2,8.76,8.76,0,0,0-1.8,3A10.59,10.59,0,0,0,44.18,60Z"/><path d="M70.22,60A12,12,0,0,1,71,55.55,10.62,10.62,0,0,1,73.28,52a10.24,10.24,0,0,1,3.47-2.33,12.23,12.23,0,0,1,8.91,0A10.2,10.2,0,0,1,89.12,52a10.62,10.62,0,0,1,2.25,3.52A12,12,0,0,1,92.18,60a12.15,12.15,0,0,1-.81,4.49,10.61,10.61,0,0,1-2.25,3.54,10,10,0,0,1-3.46,2.31,12.51,12.51,0,0,1-8.91,0,10.05,10.05,0,0,1-3.47-2.31A10.61,10.61,0,0,1,71,64.51,12.15,12.15,0,0,1,70.22,60Zm2,0a10.59,10.59,0,0,0,.63,3.69,8.76,8.76,0,0,0,1.8,3,8.34,8.34,0,0,0,2.84,2,10,10,0,0,0,7.47,0,8.3,8.3,0,0,0,2.83-2,8.76,8.76,0,0,0,1.8-3,11.12,11.12,0,0,0,0-7.38,8.76,8.76,0,0,0-1.8-3,8.3,8.3,0,0,0-2.83-2,10,10,0,0,0-7.47,0,8.34,8.34,0,0,0-2.84,2,8.76,8.76,0,0,0-1.8,3A10.59,10.59,0,0,0,72.2,60Z"/><path d="M99.62,49.4h12.72v1.8H101.6v7.56h10v1.8h-10V70.64h-2Z"/><path d="M119.3,49.4h2V70.64h-2Z"/><path d="M130.1,49.4h2.55L145.58,68h.06V49.4h2V70.64h-2.55L132.14,52h-.06v18.6h-2Z"/><path d="M174,69.26a13.77,13.77,0,0,1-3.85,1.49,19.07,19.07,0,0,1-4.07.43,11.67,11.67,0,0,1-4.45-.82,10.05,10.05,0,0,1-3.47-2.31,10.61,10.61,0,0,1-2.25-3.54,12.15,12.15,0,0,1-.81-4.49,12,12,0,0,1,.81-4.47A10.62,10.62,0,0,1,158.12,52a10.24,10.24,0,0,1,3.47-2.33,11.49,11.49,0,0,1,4.45-.84,10.29,10.29,0,0,1,7.65,2.94l-1.44,1.5a6.12,6.12,0,0,0-1.18-1.06,8.07,8.07,0,0,0-1.53-.84,9.94,9.94,0,0,0-1.73-.54,8.35,8.35,0,0,0-1.77-.2,9.29,9.29,0,0,0-3.73.72,8.34,8.34,0,0,0-2.84,2,8.76,8.76,0,0,0-1.8,3,11.12,11.12,0,0,0,0,7.38,8.76,8.76,0,0,0,1.8,3,8.34,8.34,0,0,0,2.84,2,9.29,9.29,0,0,0,3.73.72,18.12,18.12,0,0,0,3.21-.27,8.25,8.25,0,0,0,2.73-1V61h-5.1v-1.8H174Z"/><path d="M194.15,66.71a5.09,5.09,0,0,0,2,2,5.94,5.94,0,0,0,2.83.66,5.67,5.67,0,0,0,1.86-.3,4.77,4.77,0,0,0,1.52-.84,3.93,3.93,0,0,0,1-1.3,3.89,3.89,0,0,0,.37-1.73,3.31,3.31,0,0,0-.46-1.83,3.73,3.73,0,0,0-1.25-1.18,9.1,9.1,0,0,0-1.75-.8l-2-.66q-1-.33-2-.75a6.75,6.75,0,0,1-1.76-1.09,4.89,4.89,0,0,1-1.24-1.7,6.06,6.06,0,0,1-.47-2.52,5.45,5.45,0,0,1,.56-2.5,5.35,5.35,0,0,1,1.5-1.83,6.65,6.65,0,0,1,2.17-1.11,8.8,8.8,0,0,1,2.58-.38,8.37,8.37,0,0,1,3.23.62,6.1,6.1,0,0,1,2.56,2.05l-1.71,1.23A5,5,0,0,0,202,51.19a5.11,5.11,0,0,0-2.39-.53,6.48,6.48,0,0,0-1.83.26,4.55,4.55,0,0,0-1.51.75,3.69,3.69,0,0,0-1,1.24,3.79,3.79,0,0,0-.39,1.77,3.43,3.43,0,0,0,.81,2.45,5.73,5.73,0,0,0,2,1.35,21.5,21.5,0,0,0,2.64.87,12.77,12.77,0,0,1,2.64,1,5.69,5.69,0,0,1,2,1.76,5.21,5.21,0,0,1,.81,3.1,5.76,5.76,0,0,1-.54,2.55,5.62,5.62,0,0,1-1.45,1.88,6.3,6.3,0,0,1-2.12,1.15,8,8,0,0,1-2.49.39,10,10,0,0,1-3.87-.73,7.1,7.1,0,0,1-3-2.48Z"/><path d="M218,61.49l-7.8-12.09h2.37L219,59.48l6.57-10.08h2.22L220,61.49v9.15h-2Z"/><path d="M234.05,66.71a5.09,5.09,0,0,0,2,2,5.94,5.94,0,0,0,2.83.66,5.67,5.67,0,0,0,1.86-.3,4.77,4.77,0,0,0,1.52-.84,3.93,3.93,0,0,0,1-1.3,3.89,3.89,0,0,0,.37-1.73,3.31,3.31,0,0,0-.46-1.83A3.73,3.73,0,0,0,242,62.2a9.1,9.1,0,0,0-1.75-.8l-2-.66q-1-.33-2-.75a6.75,6.75,0,0,1-1.76-1.09,4.89,4.89,0,0,1-1.24-1.7,6.06,6.06,0,0,1-.47-2.52,5.45,5.45,0,0,1,.56-2.5,5.35,5.35,0,0,1,1.5-1.83A6.65,6.65,0,0,1,237,49.24a8.8,8.8,0,0,1,2.58-.38,8.37,8.37,0,0,1,3.23.62,6.1,6.1,0,0,1,2.56,2.05l-1.71,1.23a5,5,0,0,0-1.75-1.57,5.11,5.11,0,0,0-2.39-.53,6.48,6.48,0,0,0-1.83.26,4.55,4.55,0,0,0-1.51.75,3.69,3.69,0,0,0-1,1.24,3.79,3.79,0,0,0-.39,1.77,3.43,3.43,0,0,0,.81,2.45,5.73,5.73,0,0,0,2,1.35,21.5,21.5,0,0,0,2.64.87,12.77,12.77,0,0,1,2.64,1,5.69,5.69,0,0,1,2,1.76,5.21,5.21,0,0,1,.81,3.1,5.76,5.76,0,0,1-.54,2.55,5.62,5.62,0,0,1-1.45,1.88,6.3,6.3,0,0,1-2.12,1.15,8,8,0,0,1-2.49.39,10,10,0,0,1-3.87-.73,7.1,7.1,0,0,1-3-2.48Z"/><path d="M257.87,51.2h-7.26V49.4h16.5v1.8h-7.26V70.64h-2Z"/><path d="M273.38,49.4h13v1.8h-11v7.56h10.32v1.8H275.36v8.28h11.49v1.8H273.38Z"/><path d="M294,49.4h3l7.74,17.82,7.74-17.82h2.82V70.64h-2V51.92h-.06l-8.1,18.72h-.87L296,51.92h-.06V70.64h-2Z"/></g></g></svg>