<svg xmlns="http://www.w3.org/2000/svg" viewBox="0 0 540.94 540.91"><defs><style>.cls-1{fill:#ddd;}</style></defs><title>create</title><g id="Layer_2" data-name="Layer 2"><g id="Layer_1-2" data-name="Layer 1"><path class="cls-1" d="M473.57,3.62A12.32,12.32,0,0,0,464.72,0a12.84,12.84,0,0,0-8.85,3.62L277.31,182.17l-.5.5-.25.25c-.24.38-.62.75-.87,1.12,0,.13-.12.13-.12.25-.25.37-.38.63-.63,1-.13.12-.13.25-.25.37-.12.38-.24.63-.37,1,0,.13-.13.13-.13.25L242.4,282.8a12.27,12.27,0,0,0,3,12.72,12.57,12.57,0,0,0,8.85,3.61,14.57,14.57,0,0,0,4-.62l95.64-31.92c.13,0,.13,0,.25-.13a4.48,4.48,0,0,0,1.12-.49.43.43,0,0,0,.25-.13c.38-.25.87-.5,1.25-.75s.75-.62,1.12-.87c.13-.12.25-.12.25-.25s.37-.25.5-.5L537.29,84.79a12.41,12.41,0,0,0,0-17.58Zm-182,210.47,35.29,35.29L273.94,267Zm58.35,23.07L303.75,191l161-161,46.13,46.13Z"/><path class="cls-1" d="M444.15,233.05a12.5,12.5,0,0,0-12.47,12.47v233A37.51,37.51,0,0,1,394.27,516H62.35a37.51,37.51,0,0,1-37.41-37.41V146.63a37.51,37.51,0,0,1,37.41-37.4h233a12.47,12.47,0,1,0,0-24.94h-233A62.37,62.37,0,0,0,0,146.63V478.56a62.38,62.38,0,0,0,62.35,62.35H394.27a62.38,62.38,0,0,0,62.35-62.35v-233A12.5,12.5,0,0,0,444.15,233.05Z"/></g></g></svg>