<?xml version="1.0" encoding="utf-8"?>
<!-- Generator: Adobe Illustrator 24.0.1, SVG Export Plug-In . SVG Version: 6.00 Build 0)  -->
<svg version="1.1" id="Layer_1" xmlns="http://www.w3.org/2000/svg" xmlns:xlink="http://www.w3.org/1999/xlink" x="0px" y="0px"
	 viewBox="0 0 43 55.7" style="enable-background:new 0 0 43 55.7;" xml:space="preserve">
<style type="text/css">
	.st0{fill:#49777E;}
</style>
<title>edit</title>
<g id="edit">
	<g id="Layer_1-2">
		<path class="st0" d="M29.2,0c-0.6,0-1.3,0.1-1.9,0.2c-1.7,0.4-3.1,1.5-4,3l-1.8,3.2c-0.4,0.7-0.2,1.6,0.5,2l8.6,5
			c0.2,0.1,0.5,0.2,0.8,0.2c0.1,0,0.3,0,0.4,0c0.4-0.1,0.7-0.4,0.9-0.7l1.8-3.2c0.9-1.5,1.1-3.3,0.7-4.9c-0.4-1.7-1.5-3.1-3-4
			C31.3,0.4,30.2,0.1,29.2,0z M19.5,11.2c-0.5,0-0.9,0.3-1.2,0.7l-15,26.3c-1.7,2.9-2.7,6.1-2.8,9.5L0,54.1c0,0.6,0.3,1.1,0.8,1.4
			c0.2,0.1,0.5,0.2,0.8,0.2s0.6-0.1,0.8-0.2L7.8,52c2.8-1.8,5.1-4.3,6.8-7.2l15.1-26.2c0.4-0.7,0.2-1.6-0.5-2.1
			C28.4,16,27.5,16.3,27,17l0,0L11.9,43.2c-1.5,2.5-3.5,4.6-5.8,6.2l-2.9,1.9l0.2-3.5c0.2-2.9,1-5.7,2.5-8.2L21,13.5
			c0.4-0.7,0.2-1.6-0.5-2.1C20.2,11.3,19.9,11.2,19.5,11.2z M14,52.7c-0.8,0-1.5,0.7-1.5,1.5s0.7,1.5,1.5,1.5h20
			c0.8,0,1.5-0.7,1.5-1.5s-0.7-1.5-1.5-1.5H14z M41.5,52.7c-0.8,0-1.5,0.7-1.5,1.5s0.7,1.5,1.5,1.5S43,55,43,54.2
			C43,53.3,42.3,52.7,41.5,52.7L41.5,52.7z"/>
	</g>
</g>
</svg>
