<svg xmlns="http://www.w3.org/2000/svg" viewBox="0 0 490.67 490.67"><defs><style>.cls-1{fill:#ddd;}</style></defs><title>resize</title><g id="Layer_2" data-name="Layer 2"><g id="Capa_1" data-name="Capa 1"><path class="cls-1" d="M423.53,67.14a10.67,10.67,0,0,0-15.08,0L259.11,216.47a10.67,10.67,0,0,0,15.09,15.08L423.53,82.22A10.67,10.67,0,0,0,423.53,67.14Z"/><path class="cls-1" d="M416,64a10.67,10.67,0,0,0-10.67,10.67v128a10.67,10.67,0,0,0,21.34,0v-128A10.67,10.67,0,0,0,416,64Z"/><path class="cls-1" d="M416,64H288a10.67,10.67,0,1,0,0,21.33H416A10.67,10.67,0,1,0,416,64Z"/><path class="cls-1" d="M231.53,259.14a10.67,10.67,0,0,0-15.08,0L67.11,408.47A10.67,10.67,0,0,0,82.2,423.55L231.53,274.22A10.67,10.67,0,0,0,231.53,259.14Z"/><path class="cls-1" d="M74.67,277.33A10.67,10.67,0,0,0,64,288V416a10.67,10.67,0,1,0,21.33,0V288A10.67,10.67,0,0,0,74.67,277.33Z"/><path class="cls-1" d="M202.67,405.33h-128a10.67,10.67,0,1,0,0,21.34h128a10.67,10.67,0,0,0,0-21.34Z"/><path class="cls-1" d="M458.67,0H32A32,32,0,0,0,0,32V458.67a32,32,0,0,0,32,32H458.67a32,32,0,0,0,32-32V32A32,32,0,0,0,458.67,0Zm10.66,458.67a10.7,10.7,0,0,1-10.66,10.66H32a10.7,10.7,0,0,1-10.67-10.66V32A10.7,10.7,0,0,1,32,21.33H458.67A10.7,10.7,0,0,1,469.33,32V458.67Z"/></g></g></svg>