<svg xmlns="http://www.w3.org/2000/svg" viewBox="0 0 36.03 46"><defs><style>.cls-1{fill:#ddd;}</style></defs><title>trash_1</title><g id="Layer_2" data-name="Layer 2"><g id="Layer_1-2" data-name="Layer 1"><path class="cls-1" d="M14,0a3,3,0,0,0-3,3V5H1A1,1,0,0,0,1,7H2V43a3,3,0,0,0,3,3H31a3,3,0,0,0,3-3V7h1a1,1,0,1,0,0-2H33.18a.86.86,0,0,0-.32,0H25V3a3,3,0,0,0-3-3Zm0,2h8a1,1,0,0,1,1,1V5H13V3A1,1,0,0,1,14,2ZM4,7h7.84a.86.86,0,0,0,.32,0H23.85a.86.86,0,0,0,.32,0H32V43a1,1,0,0,1-1,1H5a1,1,0,0,1-1-1Zm8,5a1,1,0,0,0-1,1V38a1,1,0,0,0,1,1,1,1,0,0,0,1-1V13a1,1,0,0,0-1-1Zm6,0a1,1,0,0,0-1,1V38a1,1,0,0,0,1,1,1,1,0,0,0,1-1V13a1,1,0,0,0-1-1Zm6,0a1,1,0,0,0-1,1V38a1,1,0,0,0,1,1,1,1,0,0,0,1-1V13a1,1,0,0,0-1-1Z"/></g></g></svg>