<svg xmlns="http://www.w3.org/2000/svg" viewBox="0 0 306 192"><defs><style>.cls-1{fill:#d5d6d6;}.cls-2{fill:#2bb29a;}.cls-3{fill:#fff;}</style></defs><title>upload</title><g id="Layer_2" data-name="Layer 2"><g id="Layer_1-2" data-name="Layer 1"><path class="cls-1" d="M237,161a76.7,76.7,0,0,1-50-18.5,58.49,58.49,0,1,1-19.75-91,77.22,77.22,0,0,1,27.71-31.94,14.25,14.25,0,0,1-.92-5A14.5,14.5,0,0,0,179.5,0h-86A14.5,14.5,0,0,0,79,14.5,14.5,14.5,0,0,1,64.5,29h-50A14.5,14.5,0,0,0,0,43.5v134A14.5,14.5,0,0,0,14.5,192h243A14.5,14.5,0,0,0,272,177.5V152.58A76.64,76.64,0,0,1,237,161Z"/><circle class="cls-2" cx="243.24" cy="82.76" r="62.76"/><rect class="cls-3" x="234.95" y="50" width="16.9" height="66"/><rect class="cls-3" x="234.55" y="49.6" width="16.9" height="66" transform="translate(325.6 -160.4) rotate(90)"/></g></g></svg>