<svg xmlns="http://www.w3.org/2000/svg" viewBox="0 0 500.83 161.98"><defs><style>.cls-1{fill:#282828;}</style></defs><title>visa</title><g id="Layer_2" data-name="Layer 2"><g id="Layer_1-2" data-name="Layer 1"><path class="cls-1" d="M481.54,160c-4.67,0-9.35-.29-14,0-3.46.22-4.93-1.27-5.2-4.38-.38-4.48-2.5-8.57-2.57-13.17,0-3.73-2-5.77-6.37-5.72-14.16.19-28.32,0-42.48-.2-3.17-.05-4.73.76-5.6,4-1.24,4.63-3.3,9-4.77,13.61-1.36,4.22-4.1,6.3-8.46,6.29q-16,0-32-.18c-3.49,0-4.72-1-3-4.9,6-13.49,11.36-27.22,17.17-40.77,6.08-14.15,12.49-28.16,18.56-42.33,7.76-18.15,15.47-36.32,22.9-54.61,3.49-8.58,9.72-14.51,20.58-13.94,9.14.48,18.33.32,27.48.15,3.79-.07,5.63,1,6.42,5,5.54,28,11.29,55.89,17,83.82,2.37,11.53,5.28,23,7.17,34.58,1.58,9.68,3.95,19.15,6.19,28.66.71,3-.41,4.33-3.59,4.23C491.87,160,486.7,160,481.54,160ZM440.12,47.36a7.59,7.59,0,0,0-.82,1q-9.78,26.15-19.56,52.29c-1.29,3.45.54,4,3.4,4,8.33,0,16.66-.08,25,.18,3.51.11,3.77-1.24,3.16-4.12-1.86-8.76-3.36-17.6-5.29-26.34S443,56.45,440.12,47.36Z"/><path class="cls-1" d="M106.52,105.1q17-42.42,34.06-84.84c1.6-4,4-7.79,4.85-11.92,1.21-5.6,4.37-6.39,9.33-6.2,10.48.38,21,.35,31.48.2,3.89-.06,4.67,1.16,3.19,4.57Q180.74,27,172.16,47.06c-8.5,20-16.72,40-25.49,59.85q-10.78,24.38-20.93,49c-.8,2-2.35,2.12-4.07,2.11-12.16-.06-24.33-.15-36.49-.18-5.25,0-5.28-4.51-6.13-7.68-3.36-12.5-6-25.18-9.46-37.66-4.72-17.27-8.36-34.81-13.33-52C54,52.78,51.39,45,50.56,36.92,49.24,24.14,40.38,18.49,29.71,14.8A231.85,231.85,0,0,0,3.93,7.17C2.19,6.79-.49,6.72.08,3.7.54,1.28,2.63,1.43,4.47,1.44c22.32.11,44.64.16,67,.4,7.63.09,15.24,4.56,17.31,15,5,25,9.11,50.23,13.67,75.34.8,4.37,2,8.67,3,13Z"/><path class="cls-1" d="M287.5,162c-14.13.24-27.71-2.71-41.14-6.62-3.47-1-4.8-2.43-3.72-6.44,2.19-8.16,3.72-16.5,5.42-24.78.75-3.63,1.71-5.1,6-3.23,14.49,6.3,29.56,9.78,45.52,7.12a23.8,23.8,0,0,0,7.89-3c9.83-5.57,10.24-15.68,1.08-22.44-6.49-4.79-14-7.64-20.95-11.59-10.06-5.73-19.42-12.26-24.69-23.15C258,57.74,258,47.22,261.68,37,269,16.87,285.23,7.3,304.84,2.65c18.84-4.47,37.55-3.12,56,2.8,4.57,1.46,5.5,3.76,4.31,8.14-2.05,7.52-3.64,15.17-5.46,22.75-.74,3-1.56,3.93-5.47,2.69-13.42-4.27-27-8.5-41.43-4.1a16.93,16.93,0,0,0-9.4,6.91c-2.89,4.22-2.13,8.48,1.89,12,8.12,7.06,18.26,10.81,27.22,16.5,11.82,7.51,22.73,15.86,24.93,31.15,2.7,18.74-3.43,34.12-18.34,45.53C324,158.59,306.11,161.86,287.5,162Z"/><path class="cls-1" d="M228.28,2.64c5.5,0,11,.14,16.49,0,3.06,0,4,.66,3.23,4.07-5.59,23.73-10.62,47.59-16,71.37-4.54,20.18-9.16,40.38-13,60.73-1,5.21-2.4,10.34-3.51,15.54-.75,3.51-3,5-6.38,5-10.5,0-21-.17-31.49-.12-3.31,0-4-1.46-3.36-4.38,3.89-17,7.8-33.91,11.56-50.9,3.33-15,6.43-30.15,9.7-45.21Q201.21,32.57,207,6.34c.56-2.55,1.79-4,4.8-3.85C217.28,2.75,222.78,2.61,228.28,2.64Z"/></g></g></svg>